<?xml version="1.0" encoding="UTF-8"?>
<svg xmlns="http://www.w3.org/2000/svg" version="1.1" viewBox="0 0 26.9 56">
  <defs>
    <style>
      .cls-1 {
        fill: #fff;
      }
    </style>
  </defs>
  <!-- Generator: Adobe Illustrator 28.6.0, SVG Export Plug-In . SVG Version: 1.2.0 Build 709)  -->
  <g>
    <g id="_레이어_1" data-name="레이어_1">
      <g id="_레이어_1-2" data-name="_레이어_1">
        <rect x="0" y="-.2" width="26.9" height="56.2"/>
        <g id="_레이어_1-2">
          <path id="_xF8FF_" class="cls-1" d="M13.7,16.2c1.5,0,3.4-1,4.5-2.5,1-1.3,1.7-3,1.7-4.8s0-.5,0-.6c-1.6,0-3.7,1.2-4.9,2.7-.9,1.1-1.8,2.8-1.8,4.6s0,.5,0,.6c0,0,.5,0,.5,0ZM8.5,42.5c2,0,2.9-1.4,5.5-1.4s3.2,1.4,5.4,1.4,3.8-2.1,5.1-4.2c1.6-2.4,2.2-4.8,2.3-4.9,0,0-4.4-1.8-4.4-6.9s3.4-6.3,3.6-6.5c-2.2-3.3-5.6-3.4-6.5-3.4-2.5,0-4.5,1.6-5.8,1.6s-3.2-1.5-5.4-1.5C4.2,16.8,0,20.3,0,26.9s1.6,8.5,3.5,11.3c1.6,2.4,3.1,4.3,5.1,4.3h0Z"/>
        </g>
      </g>
    </g>
  </g>
</svg>