<?xml version="1.0" encoding="UTF-8"?>
<svg id="_레이어_1" data-name="레이어_1" xmlns="http://www.w3.org/2000/svg" viewBox="0 0 700 699.98">
  <defs>
    <style>
      .cls-1 {
        fill: #fff;
      }
    </style>
  </defs>
  <path d="M84.77,375.05c5.73-2.08,11.92-2.88,16.12-7.74,4.13-4.77,5.49-10.68,7.06-16.77.19.59.4,1.17.57,1.76.88,3.07,1.53,6.23,2.66,9.2,2.49,6.53,7.52,10.11,14.22,11.62,1.95.44,3.83,1.23,5.73,2.17-6.14,1.12-11.84,2.93-16.43,7.22-4.74,4.44-5.34,10.6-6.81,16.57-1.41-5.95-2.53-11.9-6.95-16.41-4.4-4.49-10.07-6.26-16.17-7.62Z"/>
  <path d="M601.31,355.8c1.52,5.92,2.22,12.18,6.95,16.74,4.53,4.37,10.78,5,16.47,7.42-13.28,2.45-22.66,8.49-22.77,23.63-.28-.07-.55-.13-.83-.2-.33-1.2-.72-2.4-.97-3.62-.82-4.02-1.97-7.89-4.59-11.17-3.65-4.56-8.68-6.63-14.16-7.9-.7-.16-1.4-.31-2.09-.51-.2-.06-.35-.27-.95-.78,1.15-.32,1.95-.6,2.78-.78,6.38-1.34,12.29-3.65,15.35-9.88,1.67-3.39,2.47-7.21,3.64-10.85.23-.71.34-1.46.51-2.2.22.02.43.05.65.07Z"/>
  <path d="M200.49,129.41c1.54,4.73,2.46,9.55,6.15,13.15,3.7,3.6,8.68,4.12,13.5,5.78-11,2.37-19.17,7.32-19.56,20.14-1.9-4.89-2.69-9.89-6.47-13.51-3.71-3.55-8.37-5.12-13.19-6.79,4.75-1.38,9.75-1.94,13.4-5.68,3.55-3.63,4.8-8.31,6.17-13.08Z"/>
  <path d="M481.73,222.12c-1.49-11.99-8.39-18.28-19.94-20.21,5.04-1.3,9.99-2.26,13.75-5.92,3.72-3.61,4.51-8.55,6.02-13.49,1.55,11.59,7.99,17.98,19.65,19.24-5,1.83-9.93,2.98-13.63,6.66-3.7,3.69-4.83,8.47-5.86,13.72Z"/>
  <path d="M150.46,310.29c8.94-1.25,13.83-6.09,14.79-15.27,1.16,9.63,6.83,14.18,15.67,15.02-3.66,1.88-7.35,3.33-10.52,5.53-3.49,2.43-4.09,6.65-4.69,10.81-1.76-3.73-2.92-7.47-5.12-10.44-2.28-3.08-5.92-4.76-10.13-5.65Z"/>
  <path class="cls-1" d="M307.53,413.54c-2.99-.1-5.73-3.04-5.64-6.05.1-3.26,2.87-5.97,6.06-5.92,3.17.04,5.87,2.95,5.75,6.19-.12,3.16-3.03,5.89-6.17,5.78Z"/>
  <path class="cls-1" d="M390.23,413.56c-3.13-.11-5.64-2.89-5.46-6.03.2-3.48,2.8-6.02,5.99-5.87,3.23.15,5.85,2.99,5.71,6.19-.14,3.07-3.15,5.83-6.23,5.72Z"/>
  <polygon points="465 497.2 350 309.99 235 497.2 350 419.99 465 497.2"/>
  <polygon points="350 444.99 0 679.98 350 479.99 700 679.98 350 444.99"/>
  <polygon points="350 239.99 156.38 549.98 50 621.41 350 0 650 621.41 543.62 549.98 350 239.99"/>
  <path d="M350,497.2l9.85,75.77c.88,6.75,5.93,12.21,12.6,13.6l57.55,12.01-57.55,12.01c-6.67,1.39-11.72,6.85-12.6,13.6l-9.85,75.77-9.85-75.77c-.88-6.75-5.93-12.21-12.6-13.6l-57.55-12.01,57.55-12.01c6.67-1.39,11.72-6.85,12.6-13.6l9.85-75.77Z"/>
  <polygon class="cls-1" points="465 381.83 350 156.83 235 381.83 350 190.02 465 381.83"/>
</svg>